#tb 0: 1/25
#media_type 0: video
#codec_id 0: rawvideo
#dimensions 0: 352x288
#sar 0: 0/1
0,          0,          0,        1,   152064, 0xa18cfb97
0,          1,          1,        1,   152064, 0x509b54d2
0,          2,          2,        1,   152064, 0x1ba0fb8e
0,          3,          3,        1,   152064, 0x43e7721f
0,          4,          4,        1,   152064, 0xed196624
0,          5,          5,        1,   152064, 0x4277f1e8
0,          6,          6,        1,   152064, 0x88015cd6
0,          7,          7,        1,   152064, 0x0f230af3
0,          8,          8,        1,   152064, 0x91bbd664
0,          9,          9,        1,   152064, 0x117c65dd
0,         10,         10,        1,   152064, 0x8eebe5e8
0,         11,         11,        1,   152064, 0xd205cc10
0,         12,         12,        1,   152064, 0x4084a356
0,         13,         13,        1,   152064, 0x37385081
0,         14,         14,        1,   152064, 0xb7d34d8a
0,         15,         15,        1,   152064, 0x96648874
0,         16,         16,        1,   152064, 0x0623e65b
0,         17,         17,        1,   152064, 0x7d5b0173
0,         18,         18,        1,   152064, 0x0b6428e4
0,         19,         19,        1,   152064, 0xf3ca22a8
0,         20,         20,        1,   152064, 0x092e322c
0,         21,         21,        1,   152064, 0xe82c2971
0,         22,         22,        1,   152064, 0x29bf6111
0,         23,         23,        1,   152064, 0x84f1ea0d
0,         24,         24,        1,   152064, 0x45f822eb
0,         25,         25,        1,   152064, 0x9672b2a7
0,         26,         26,        1,   152064, 0xdb98e020
0,         27,         27,        1,   152064, 0x729879eb
0,         28,         28,        1,   152064, 0x3f629eae
0,         29,         29,        1,   152064, 0x02e0ddb7
0,         30,         30,        1,   152064, 0xbb1a0bb1
0,         31,         31,        1,   152064, 0x9b85b55b
0,         32,         32,        1,   152064, 0x2bae448b
0,         33,         33,        1,   152064, 0xa8f28bfa
0,         34,         34,        1,   152064, 0x687479da
0,         35,         35,        1,   152064, 0xe1ec3111
0,         36,         36,        1,   152064, 0x8afa37f1
0,         37,         37,        1,   152064, 0x4af89faf
0,         38,         38,        1,   152064, 0x1d9da53a
0,         39,         39,        1,   152064, 0xdc599bcd
0,         40,         40,        1,   152064, 0x01fb2e11
0,         41,         41,        1,   152064, 0x2a33498e
0,         42,         42,        1,   152064, 0x87874877
0,         43,         43,        1,   152064, 0xdcd095c6
0,         44,         44,        1,   152064, 0x4f14e6fb
0,         45,         45,        1,   152064, 0x65fd165e
0,         46,         46,        1,   152064, 0x4c267122
0,         47,         47,        1,   152064, 0x18adf3aa
0,         48,         48,        1,   152064, 0x74044daa
0,         49,         49,        1,   152064, 0xa03bca1e
0,         50,         50,        1,   152064, 0x7c1463fe
0,         51,         51,        1,   152064, 0x688a14e3
0,         52,         52,        1,   152064, 0x35c91c4e
0,         53,         53,        1,   152064, 0xeaf51d07
0,         54,         54,        1,   152064, 0xee61b9b1
0,         55,         55,        1,   152064, 0xbab75db3
0,         56,         56,        1,   152064, 0x199af472
0,         57,         57,        1,   152064, 0x3bcf96db
0,         58,         58,        1,   152064, 0x3fecdb09
0,         59,         59,        1,   152064, 0x07be2431
0,         60,         60,        1,   152064, 0x61432984
0,         61,         61,        1,   152064, 0xdb12a3b9
0,         62,         62,        1,   152064, 0xc2b8403e
0,         63,         63,        1,   152064, 0x34c60bde
0,         64,         64,        1,   152064, 0x08639859
0,         65,         65,        1,   152064, 0xfc0fc556
0,         66,         66,        1,   152064, 0x9cc27272
0,         67,         67,        1,   152064, 0x3ef7dbb0
0,         68,         68,        1,   152064, 0xbb74d9a3
0,         69,         69,        1,   152064, 0x4007fc6e
0,         70,         70,        1,   152064, 0x3d902f9b
0,         71,         71,        1,   152064, 0xfbd0a76a
0,         72,         72,        1,   152064, 0x4f1a4631
0,         73,         73,        1,   152064, 0x4f58ee25
0,         74,         74,        1,   152064, 0xd2c39501
0,         75,         75,        1,   152064, 0x23de68d5
0,         76,         76,        1,   152064, 0x4bf7d4ce
0,         77,         77,        1,   152064, 0x2bdccc79
0,         78,         78,        1,   152064, 0xc26b8f81
0,         79,         79,        1,   152064, 0xe77fa90a
0,         80,         80,        1,   152064, 0x48528308
0,         81,         81,        1,   152064, 0xab19b66b
0,         82,         82,        1,   152064, 0x04db5b4a
0,         83,         83,        1,   152064, 0x9fade901
0,         84,         84,        1,   152064, 0x1b7274ba
0,         85,         85,        1,   152064, 0x387a0191
0,         86,         86,        1,   152064, 0x2b3a8128
0,         87,         87,        1,   152064, 0x2a0dab30
0,         88,         88,        1,   152064, 0x5f5fc2da
0,         89,         89,        1,   152064, 0x5a5c8150
0,         90,         90,        1,   152064, 0xe0f5095e
0,         91,         91,        1,   152064, 0xb87c8072
0,         92,         92,        1,   152064, 0x08155daf
0,         93,         93,        1,   152064, 0xc308353f
0,         94,         94,        1,   152064, 0x2a04e8e4
0,         95,         95,        1,   152064, 0xabe75987
0,         96,         96,        1,   152064, 0x8733fb98
0,         97,         97,        1,   152064, 0x810f53a0
0,         98,         98,        1,   152064, 0xb3e4ea37
0,         99,         99,        1,   152064, 0xb7a70980
